#N canvas 414 93 506 427 12;
#X obj -131 76 adc~;
#X text -75 318 Connect adc to delwrite if you want add microphone
in to delay;
#X obj -141 31 inlet~;
#X obj -142 262 outlet~;
#X obj -145 171 delread~ delayname;
#X obj 111 146 hsl 128 15 0 500 0 0 empty empty empty -2 -8 0 10 -262144
-1 -1 10800 1;
#X text 209 127 TIME;
#X obj 111 189 hsl 128 15 0 1 0 0 empty empty empty -2 -8 0 10 -262144
-1 -1 6600 1;
#X text 181 171 FEEDBACK;
#X floatatom 108 247 5 0 0 0 - - -;
#X obj 35 245 *~;
#X obj 23 22 * 1000;
#X obj 23 58 + 60;
#X obj -147 124 delwrite~ delayname 1100;
#X text 156 103 DELAY;
#X connect 0 0 13 0;
#X connect 2 0 13 0;
#X connect 4 0 3 0;
#X connect 4 0 10 0;
#X connect 5 0 11 0;
#X connect 7 0 9 0;
#X connect 7 0 10 1;
#X connect 10 0 13 0;
#X connect 11 0 12 0;
#X connect 12 0 4 0;
#X coords 0 -1 1 1 148 120 2 100 100;
