#N canvas 0 61 450 300 12;
#X obj 48 53 adc~;
#X obj 33 101 delwrite~ delayname 500;
#X obj 106 56 *~;
#X obj 103 240 dac~;
#X text 195 198 Connect adc to delwrite if you want add microphone
in to delay;
#X obj 38 8 inlet~;
#X obj 37 239 outlet~;
#X obj 34 148 delread~ delayname;
#X obj 145 7 inlet;
#X obj 274 11 inlet;
#X connect 0 0 1 0;
#X connect 2 0 1 0;
#X connect 5 0 1 0;
#X connect 7 0 2 0;
#X connect 7 0 6 0;
#X connect 8 0 7 0;
#X connect 9 0 2 1;
