#N canvas 518 90 506 427 12;
#X obj -71 74 adc~;
#X obj -13 77 *~;
#X text -75 318 Connect adc to delwrite if you want add microphone
in to delay;
#X obj -81 29 inlet~;
#X obj -82 260 outlet~;
#X obj -85 169 delread~ delayname;
#X obj 111 130 hsl 128 15 0 500 0 0 empty empty empty -2 -8 0 10 -262144
-1 -1 9100 1;
#X text 209 111 TIME;
#X obj 111 173 hsl 128 15 0 2 0 0 empty empty empty -2 -8 0 10 -262144
-1 -1 4000 1;
#X text 181 155 FEEDBACK;
#X obj -86 122 delwrite~ delayname 1400;
#X floatatom 111 225 5 0 0 0 - - -;
#X connect 0 0 10 0;
#X connect 1 0 10 0;
#X connect 3 0 10 0;
#X connect 5 0 1 0;
#X connect 5 0 4 0;
#X connect 6 0 5 0;
#X connect 8 0 1 1;
#X connect 8 0 11 0;
#X coords 0 -1 1 1 148 100 2 100 100;
