#N canvas 166 61 813 503 12;
#X obj 223 40 monotron_delay;
#X obj 223 460 dac~;
#X obj 39 450 throw~ mic;
#X obj 222 7 catch~ mic;
#X obj 696 356 subs/rec;
#X obj 266 460 throw~ session;
#X obj 696 313 catch~ session;
#X obj 38 39 subs/vu_mic_in;
#X connect 0 0 1 0;
#X connect 0 0 1 1;
#X connect 0 0 5 0;
#X connect 3 0 0 0;
#X connect 6 0 4 0;
#X connect 7 0 2 0;
