#N canvas 166 61 714 493 12;
#X obj 223 40 monotron_delay;
#X obj 223 460 dac~;
#X obj 38 39 vu_mic_in;
#X obj 39 450 throw~ mic;
#X obj 222 7 catch~ mic;
#X connect 0 0 1 0;
#X connect 0 0 1 1;
#X connect 2 0 3 0;
#X connect 4 0 0 0;
