#N canvas 0 61 450 300 12;
#X obj 42 24 hsl 128 15 0 127 0 0 empty empty empty -2 -8 0 10 -262144
-1 -1 2900 1;
#X obj 39 44 mtof;
#X obj 39 77 phasor~;
#X obj 41 152 dac~;
#X obj 304 25 vradio 15 1 0 3 empty empty empty 0 -8 0 10 -262144 -1
-1 0;
#X text 272 21 OFF;
#X text 272 37 SAW;
#X text 272 53 SQR;
#X connect 0 0 1 0;
#X connect 1 0 2 0;
#X connect 2 0 3 0;
#X connect 2 0 3 1;
