#N canvas 0 61 677 409 12;
#X obj 39 44 mtof;
#X obj 46 261 phasor~;
#X obj 164 133 vradio 15 1 0 3 empty empty empty 0 -8 0 10 -262144
-1 -1 0;
#X text 132 129 OFF;
#X text 132 145 SAW;
#X text 132 161 SQR;
#X floatatom 301 78 5 0 0 0 - - -;
#X obj 124 259 phasor~;
#X obj 124 291 expr~ $v1 > 0.5;
#X obj 476 6 sel 0 1 2;
#X msg 481 53 \; pd dsp 0 \; pd dsp 1 \;;
#X msg 567 53 \; pd dsp 0 \; pd dsp 1 \;;
#X msg 394 52 \; pd dsp 0 \;;
#X floatatom 83 46 5 0 0 0 - - -;
#X obj 47 295 *~;
#X obj 124 321 *~;
#X msg 481 150 0;
#X msg 521 150 1;
#X msg 565 150 0;
#X msg 605 150 1;
#X obj 482 116 t b b;
#X obj 568 117 t b b;
#X obj 39 10 inlet;
#X obj 54 374 outlet~;
#X connect 0 0 13 0;
#X connect 1 0 14 0;
#X connect 2 0 6 0;
#X connect 2 0 9 0;
#X connect 7 0 8 0;
#X connect 8 0 15 0;
#X connect 9 0 12 0;
#X connect 9 1 10 0;
#X connect 9 1 20 0;
#X connect 9 2 11 0;
#X connect 9 2 21 0;
#X connect 13 0 1 0;
#X connect 13 0 7 0;
#X connect 14 0 23 0;
#X connect 15 0 23 0;
#X connect 16 0 15 1;
#X connect 17 0 14 1;
#X connect 18 0 14 1;
#X connect 19 0 15 1;
#X connect 20 0 16 0;
#X connect 20 1 17 0;
#X connect 21 0 18 0;
#X connect 21 1 19 0;
#X connect 22 0 0 0;
#X coords 0 -1 1 1 85 85 2 100 100;
