#N canvas 210 61 622 503 12;
#X text 477 157 VOLUME;
#X obj 393 177 hsl 128 15 0 1 0 0 empty empty empty -2 -8 0 10 -262144
-1 -1 0 1;
#X obj 146 177 hsl 128 15 0 127 0 0 empty empty empty -2 -8 0 10 -262144
-1 -1 0 1;
#X obj 236 307 inlet~;
#X text 59 304 MIC;
#X obj 391 317 outlet~;
#X text 566 323 DAC;
#X text 230 158 RIBBON;
#X text 285 110 MONOTRON DELAY;
#X obj 143 207 subs/monotrondlfo;
#X obj 247 207 subs/lfopanel;
#X obj 143 307 subs/sawosc;
#X obj 144 341 subs/fx_delay;
#X obj 390 207 subs/vcf_cutoff;
#X connect 1 0 13 1;
#X connect 2 0 9 2;
#X connect 2 0 11 1;
#X connect 3 0 12 0;
#X connect 9 0 11 0;
#X connect 10 0 9 0;
#X connect 10 1 9 1;
#X connect 11 0 12 0;
#X connect 12 0 13 0;
#X connect 13 0 5 0;
#X coords 0 -1 1 1 460 400 2 100 100;
