#N canvas 0 61 862 409 12;
#X obj 46 261 phasor~;
#X obj 164 133 vradio 15 1 0 3 empty empty empty 0 -8 0 10 -262144
-1 -1 0;
#X text 132 129 OFF;
#X text 132 145 SAW;
#X text 132 161 SQR;
#X floatatom 245 163 5 0 0 0 - - -;
#X obj 124 259 phasor~;
#X obj 124 291 expr~ $v1 > 0.5;
#X obj 572 106 sel 0 1 2;
#X msg 577 153 \; pd dsp 0 \; pd dsp 1 \;;
#X msg 663 153 \; pd dsp 0 \; pd dsp 1 \;;
#X msg 490 152 \; pd dsp 0 \;;
#X floatatom 83 46 5 0 0 0 - - -;
#X obj 41 342 *~;
#X obj 125 376 *~;
#X msg 577 250 0;
#X msg 617 250 1;
#X msg 661 250 0;
#X msg 701 250 1;
#X obj 578 216 t b b;
#X obj 664 217 t b b;
#X obj 39 10 inlet;
#X obj 54 374 outlet~;
#X obj 46 226 * 0.01;
#X obj 124 219 * 0.01;
#X obj 251 10 inlet;
#X text 300 8 INT./DEPTH;
#X obj 251 41 *~ 1;
#X obj 251 80 +~ 440;
#X text 303 73 center pitch;
#X text 98 10 RATE/SPEED;
#X obj 414 8 inlet;
#X obj 414 43 mtof;
#X text 474 9 MIDI;
#X obj 123 318 *~ 2;
#X obj 124 348 -~ 1;
#X obj 45 288 *~ 2;
#X obj 46 318 -~ 1;
#X connect 0 0 36 0;
#X connect 1 0 5 0;
#X connect 1 0 8 0;
#X connect 6 0 7 0;
#X connect 7 0 34 0;
#X connect 8 0 11 0;
#X connect 8 1 9 0;
#X connect 8 1 19 0;
#X connect 8 2 10 0;
#X connect 8 2 20 0;
#X connect 12 0 23 0;
#X connect 12 0 24 0;
#X connect 13 0 27 0;
#X connect 14 0 27 0;
#X connect 15 0 14 1;
#X connect 16 0 13 1;
#X connect 17 0 13 1;
#X connect 18 0 14 1;
#X connect 19 0 15 0;
#X connect 19 1 16 0;
#X connect 20 0 17 0;
#X connect 20 1 18 0;
#X connect 21 0 12 0;
#X connect 23 0 0 0;
#X connect 24 0 6 0;
#X connect 25 0 27 1;
#X connect 27 0 28 0;
#X connect 28 0 22 0;
#X connect 31 0 32 0;
#X connect 32 0 0 0;
#X connect 32 0 6 0;
#X connect 34 0 35 0;
#X connect 35 0 14 0;
#X connect 36 0 37 0;
#X connect 37 0 13 0;
#X coords 0 -1 1 1 85 85 2 100 100;
