#N canvas 528 149 450 300 12;
#X obj 72 125 osc~ 440;
#X obj 78 214 dac~;
#X floatatom 71 83 5 0 0 0 - - -;
#X obj 260 31 hsl 128 15 0 1 0 0 empty empty empty -2 -8 0 10 -262144
-1 -1 2700 1;
#X floatatom 257 68 5 0 0 0 - - -;
#X obj 134 169 *~;
#X connect 0 0 5 0;
#X connect 2 0 0 0;
#X connect 3 0 4 0;
#X connect 4 0 5 1;
#X connect 5 0 1 0;
#X connect 5 0 1 1;
