#N canvas 210 61 622 503 12;
#X obj 143 342 fx_delay;
#X text 477 157 VOLUME;
#X obj 393 177 hsl 128 15 0 1 0 0 empty empty empty -2 -8 0 10 -262144
-1 -1 7300 1;
#X obj 146 177 hsl 128 15 0 127 0 0 empty empty empty -2 -8 0 10 -262144
-1 -1 5400 1;
#X obj 143 307 sawosc;
#X obj 143 207 monotrondlfo;
#X obj 246 207 lfopanel;
#X obj 390 207 vcf_cutoff;
#X obj 201 307 inlet~;
#X text 59 304 MIC;
#X obj 391 317 outlet~;
#X text 566 323 DAC;
#X text 230 158 RIBBON;
#X text 285 110 MONOTRON DELAY;
#X connect 0 0 7 0;
#X connect 2 0 7 1;
#X connect 3 0 5 2;
#X connect 3 0 4 1;
#X connect 4 0 0 0;
#X connect 5 0 4 0;
#X connect 6 0 5 0;
#X connect 6 1 5 1;
#X connect 7 0 10 0;
#X connect 8 0 0 0;
#X coords 0 -1 1 1 460 400 2 100 100;
