#N canvas 435 98 450 374 12;
#X obj 314 336 dac~;
#X obj 24 182 fx_delay;
#X text 349 220 VOLUME;
#X obj 220 302 lop~;
#X obj 262 162 hsl 128 15 20 1000 0 0 empty empty empty -2 -8 0 10
-262144 -1 -1 3000 1;
#X text 345 137 CUTOFF;
#X obj 266 247 hsl 128 15 0 1 0 0 empty empty empty -2 -8 0 10 -262144
-1 -1 4300 1;
#X obj 291 291 *~;
#X obj 24 72 mntrndosc;
#X obj 27 22 hsl 128 15 0 127 0 0 empty empty empty -2 -8 0 10 -262144
-1 -1 5400 1;
#X connect 1 0 3 0;
#X connect 3 0 7 0;
#X connect 4 0 3 1;
#X connect 6 0 7 1;
#X connect 7 0 0 0;
#X connect 7 0 0 1;
#X connect 8 0 1 0;
#X connect 9 0 8 0;
