#N canvas 0 61 450 300 12;
#X obj 23 32 inlet~;
#X obj 22 69 lop~;
#X obj 111 152 hsl 128 15 20 1000 0 0 empty empty empty -2 -8 0 10
-262144 -1 -1 0 1;
#X text 195 134 CUTOFF;
#X text 75 30 in from delay;
#X obj 21 105 *~;
#X obj 102 62 inlet;
#X text 151 62 VOLUME;
#X obj 22 146 outlet~;
#X text 52 127 DAC;
#X text 170 104 VCF;
#X floatatom 252 30 5 0 0 0 - - -;
#X connect 0 0 1 0;
#X connect 1 0 5 0;
#X connect 2 0 1 1;
#X connect 5 0 8 0;
#X connect 6 0 5 1;
#X connect 6 0 11 0;
#X coords 0 -1 1 1 148 85 2 100 100;
