#N canvas 50 98 450 300 12;
#X floatatom 112 151 5 0 0 0 - - -;
#X floatatom 170 151 5 0 0 0 - - -;
#X obj 112 68 inlet;
#X obj 170 68 inlet;
#X obj 112 212 outlet;
#X obj 170 212 outlet;
#X text 170 127 INT.;
#X text 112 127 RATE;
#X text 143 105 LFO;
#X connect 0 0 4 0;
#X connect 1 0 5 0;
#X connect 2 0 0 0;
#X connect 3 0 1 0;
#X coords 0 -1 1 1 120 85 2 100 100;
