#N canvas 0 61 513 300 12;
#X obj 222 178 writesf~ 2;
#X msg 168 10 open /session/session.wav;
#X msg 324 116 start;
#X msg 325 143 stop;
#X obj 221 61 inlet~;
#X obj 281 63 inlet~;
#X text 119 103 RECORD;
#X obj 114 144 bng 15 250 50 0 empty empty empty 17 7 0 10 -262144
-1 -1;
#X text 137 144 START;
#X obj 114 163 bng 15 250 50 0 empty empty empty 17 7 0 10 -262144
-1 -1;
#X text 144 161 STOP;
#X obj 114 124 bng 15 250 50 0 empty empty empty 17 7 0 10 -262144
-1 -1;
#X obj 13 79 savepanel;
#X msg 13 47 symbol /session;
#X msg 13 119 open \$1;
#X text 151 126 NEW;
#X connect 2 0 0 0;
#X connect 3 0 0 0;
#X connect 4 0 0 0;
#X connect 5 0 0 0;
#X connect 7 0 2 0;
#X connect 9 0 3 0;
#X connect 11 0 12 0;
#X connect 12 0 14 0;
#X connect 13 0 12 0;
#X connect 14 0 0 0;
#X coords 0 -1 1 1 85 85 2 100 100;
