#N canvas 257 61 450 503 12;
#X obj 185 133 vu 15 320 empty empty -1 -8 0 10 -66577 -1 1 0;
#X text 176 471 MIC;
#X obj 99 15 adc~;
#X floatatom 38 87 5 0 0 0 - - -;
#X obj 38 24 env~;
#X obj 148 132 vsl 15 320 0 2 0 0 empty empty empty 0 -9 0 10 -262144
-1 -1 25300 1;
#X obj 98 56 *~;
#X obj 216 78 outlet~;
#X text 210 57 line out;
#X obj 38 60 - 80;
#X connect 2 0 6 0;
#X connect 3 0 0 0;
#X connect 4 0 9 0;
#X connect 5 0 6 1;
#X connect 6 0 4 0;
#X connect 6 0 7 0;
#X connect 9 0 3 0;
#X coords 0 -1 1 1 170 400 2 100 100;
